# xmcd
#
# Track frame offsets: 
#        150
#        9530
#        23298
#        36648
#        44716
#        55664
#        66875
#        75638
#        83919
#        96894
#        105729
#        117835
#        128154
#        138155
#        150101
#        165488
#        176096
#
# Disc length: 2510 seconds
#
# Revision: 0
# Processed by: cddbd v1.5PL3 Copyright (c) Steve Scherf et al.
# Submitted via: ExactAudioCopy v0.90b4
#
DISCID=d009cc11
DTITLE=Kidzup - Country Tot
DYEAR=1997
DGENRE=Country
TTITLE0=Head And Shoulders
TTITLE1=The Wheels On The Bus
TTITLE2=Smile, Smile, Smile
TTITLE3=I'm A Big Kid Now
TTITLE4=I've Been Working On The Railroad
TTITLE5=Granny and Gramps
TTITLE6=In The Garden
TTITLE7=If You're Happy And You Know It
TTITLE8=Oh Susanna
TTITLE9=Rise And Shine
TTITLE10=At The Grocery
TTITLE11=Ten Little Drummers
TTITLE12=She'll Be Coming Around The Mountain
TTITLE13=Skip To My Lou
TTITLE14=This Old Man
TTITLE15=Row Row Row Your Boat
TTITLE16=Hush
EXTD=
EXTT0=
EXTT1=
EXTT2=
EXTT3=
EXTT4=
EXTT5=
EXTT6=
EXTT7=
EXTT8=
EXTT9=
EXTT10=
EXTT11=
EXTT12=
EXTT13=
EXTT14=
EXTT15=
EXTT16=
PLAYORDER=
